<svg width="1280" height="800" viewBox="0 0 1280 800" fill="none" xmlns="http://www.w3.org/2000/svg">
  <rect width="1280" height="800" fill="#050816"/>
  <rect x="58" y="58" width="1164" height="684" rx="32" fill="url(#panel)" stroke="#1FFFE2" stroke-opacity="0.3" stroke-width="4"/>
  <path d="M0 550L202 442C252 415 313 410 367 429L593 510C648 530 709 524 759 493L980 355C1044 315 1122 311 1189 345L1280 390V800H0V550Z" fill="url(#terrain)" fill-opacity="0.95"/>
  <circle cx="994" cy="210" r="102" fill="url(#orb)" fill-opacity="0.9"/>
  <path d="M220 248H660" stroke="#77FFF3" stroke-width="18" stroke-linecap="round"/>
  <path d="M220 308H544" stroke="#77FFF3" stroke-opacity="0.72" stroke-width="18" stroke-linecap="round"/>
  <path d="M220 368H446" stroke="#77FFF3" stroke-opacity="0.52" stroke-width="18" stroke-linecap="round"/>
  <rect x="188" y="170" width="904" height="460" rx="28" stroke="url(#frame)" stroke-width="6"/>
  <path d="M782 208L1002 428" stroke="#1FFFE2" stroke-width="22" stroke-linecap="round" stroke-linejoin="round"/>
  <path d="M1002 208L782 428" stroke="#5D91FF" stroke-width="22" stroke-linecap="round" stroke-linejoin="round"/>
  <circle cx="892" cy="318" r="136" stroke="#1FFFE2" stroke-opacity="0.32" stroke-width="10"/>
  <defs>
    <linearGradient id="panel" x1="640" y1="58" x2="640" y2="742" gradientUnits="userSpaceOnUse">
      <stop stop-color="#111C44"/>
      <stop offset="1" stop-color="#081021"/>
    </linearGradient>
    <linearGradient id="terrain" x1="640" y1="355" x2="640" y2="800" gradientUnits="userSpaceOnUse">
      <stop stop-color="#102A64"/>
      <stop offset="1" stop-color="#081021"/>
    </linearGradient>
    <radialGradient id="orb" cx="0" cy="0" r="1" gradientUnits="userSpaceOnUse" gradientTransform="translate(994 210) rotate(90) scale(102)">
      <stop stop-color="#77FFF3"/>
      <stop offset="1" stop-color="#77FFF3" stop-opacity="0"/>
    </radialGradient>
    <linearGradient id="frame" x1="188" y1="170" x2="1092" y2="630" gradientUnits="userSpaceOnUse">
      <stop stop-color="#1FFFE2"/>
      <stop offset="1" stop-color="#5D91FF"/>
    </linearGradient>
  </defs>
</svg>
